<svg id="SvgjsSvg1001" width="288" height="288" xmlns="http://www.w3.org/2000/svg" version="1.1" xmlns:xlink="http://www.w3.org/1999/xlink" xmlns:svgjs="http://svgjs.com/svgjs"><defs id="SvgjsDefs1002"></defs><g id="SvgjsG1008"><svg xmlns="http://www.w3.org/2000/svg" enable-background="new 0 0 512 512" viewBox="0 0 512 512" width="288" height="288"><path d="M512 104.931l-92.326-12.599-12.633 92.334 34.629-26.307c15.775 29.965 24.092 63.481 24.092 97.64 0 115.662-94.098 209.76-209.76 209.76v43.399c139.592 0 253.159-113.567 253.159-253.159 0-43.636-11.247-86.421-32.539-124.193L512 104.931zM2.841 256.001c0 43.634 11.247 86.421 32.539 124.191L0 407.069l92.326 12.599 12.633-92.332L70.332 353.64c-15.775-29.967-24.093-63.479-24.093-97.638C46.24 140.339 140.338 46.241 256 46.241V2.842C116.408 2.842 2.841 116.409 2.841 256.001z" fill="#008000" class="color000 svgShape"></path></svg></g></svg>